<?xml version="1.0" standalone="no"?>
<!DOCTYPE svg PUBLIC "-//W3C//DTD SVG 1.1//EN" "http://www.w3.org/Graphics/SVG/1.1/DTD/svg11.dtd" >
<svg xmlns="http://www.w3.org/2000/svg">
<metadata>
This is a custom SVG webfont generated by Font Squirrel.
Copyright   : HTF Gotham Copr 2000 The Hoefler Type Foundry Inc Info wwwtypographycom
</metadata>
<defs>
<font id="webfontfoFaVZPv" horiz-adv-x="1372" >
<font-face units-per-em="2048" ascent="1638" descent="-410" />
<missing-glyph horiz-adv-x="614" />
<glyph unicode=" "  horiz-adv-x="614" />
<glyph unicode="&#x09;" horiz-adv-x="614" />
<glyph unicode="&#xa0;" horiz-adv-x="614" />
<glyph unicode="!" horiz-adv-x="618" d="M164 1434h291v-72l-76 -909h-137l-78 909v72zM446 0h-272v281h272v-281z" />
<glyph unicode="&#x22;" horiz-adv-x="997" d="M571 821l50 613h280v-11l-201 -602h-129zM123 821l47 613h281v-11l-199 -602h-129z" />
<glyph unicode="#" horiz-adv-x="1433" d="M1352 899h-219l-60 -356h205v-213h-242l-57 -330h-219l57 330h-336l-55 -330h-219l57 330h-184v213h221l59 356h-204v213h241l56 322h219l-56 -322h336l54 322h219l-56 -322h183v-213zM915 899h-335l-62 -356h336z" />
<glyph unicode="$" horiz-adv-x="1314" d="M1198 399q0 -168 -120 -274.5t-316 -122.5v-203h-178v205q-266 31 -484 203l131 186q184 -150 361 -176v401q-229 59 -333.5 155.5t-104.5 266.5q0 164 117.5 270.5t312.5 123.5v118h178v-122q211 -27 385 -156l-115 -193q-133 100 -278 131v-389q233 -59 338.5 -158.5 t105.5 -265.5zM592 866v361q-94 -8 -145.5 -55.5t-51.5 -116.5q0 -68 42 -111t155 -78zM956 385q0 72 -43 116t-159 79v-371q96 8 149 55t53 121z" />
<glyph unicode="%" horiz-adv-x="1738" d="M774 1085q0 -154 -95 -261t-245 -107q-147 0 -241.5 106.5t-94.5 257.5q0 154 95.5 261.5t244.5 107.5q147 0 241.5 -106.5t94.5 -258.5zM1495 1434l-1049 -1434h-202l1048 1434h203zM1640 352q0 -154 -95 -261t-245 -107q-147 0 -241 106.5t-94 257.5q0 154 95 261.5 t245 107.5q147 0 241 -106.5t94 -258.5zM592 1081q0 90 -45 150.5t-113 60.5q-70 0 -111.5 -59t-41.5 -148q0 -90 45 -150.5t112 -60.5q70 0 112 59.5t42 147.5zM1458 348q0 90 -45 150.5t-113 60.5q-70 0 -111.5 -59.5t-41.5 -147.5q0 -90 45 -150.5t113 -60.5 q70 0 111.5 59.5t41.5 147.5z" />
<glyph unicode="&#x26;" horiz-adv-x="1425" d="M1364 104l-186 -133l-191 195q-201 -186 -440 -186q-203 0 -335 112.5t-132 298.5q0 272 305 404q-119 154 -119 301q0 152 113 257t299 105q168 0 274.5 -99t106.5 -249q0 -256 -316 -375l246 -250q78 117 154 277l190 -100q-98 -197 -194 -328zM836 1096 q0 74 -45.5 119t-118.5 45q-76 0 -123 -48.5t-47 -126.5q0 -96 108 -215q115 41 170.5 94.5t55.5 131.5zM844 313l-320 326q-190 -82 -190 -240q0 -92 67.5 -151.5t171.5 -59.5q140 0 271 125z" />
<glyph unicode="'" horiz-adv-x="550" d="M123 821l47 613h285v-11l-201 -602h-131z" />
<glyph unicode="(" horiz-adv-x="901" d="M805 1298q-221 -145 -324.5 -315t-103.5 -395.5t103.5 -395t324.5 -315.5l-109 -166q-567 311 -567 876.5t567 876.5z" />
<glyph unicode=")" horiz-adv-x="901" d="M98 1298l109 166q567 -313 567 -876t-567 -877l-109 166q221 145 324.5 315t103.5 395.5t-103.5 395.5t-324.5 315z" />
<glyph unicode="*" horiz-adv-x="880" d="M762 1008l-74 -125l-205 149l29 -250h-143l28 250l-204 -149l-74 125l233 102l-233 102l74 125l204 -149l-28 250h143l-29 -250l205 149l74 -125l-234 -102z" />
<glyph unicode="+" horiz-adv-x="1310" d="M539 834v391h233v-391h393v-226h-393v-391h-233v391h-394v226h394z" />
<glyph unicode="," horiz-adv-x="550" d="M70 -193q188 37 174 193h-105v281h273v-238q0 -166 -78 -247t-238 -93z" />
<glyph unicode="-" horiz-adv-x="835" d="M721 506h-606v244h606v-244z" />
<glyph unicode="." horiz-adv-x="550" d="M412 0h-273v281h273v-281z" />
<glyph unicode="/" horiz-adv-x="1067" d="M874 1634h216l-926 -1896h-215z" />
<glyph unicode="0" horiz-adv-x="1482" d="M1366 718.5q0 -315.5 -175 -529.5t-451.5 -214t-449.5 212t-173 527.5t175 529.5t451.5 214t449.5 -212t173 -527.5zM1106 715q0 219 -101.5 367.5t-265.5 148.5t-263 -145.5t-99 -366.5q0 -219 101.5 -367.5t265 -148.5t263 146.5t99.5 365.5z" />
<glyph unicode="1" horiz-adv-x="811" d="M53 1321l385 123h176v-1444h-249v1188l-259 -72z" />
<glyph unicode="2" horiz-adv-x="1255" d="M631 1229q-94 0 -169 -51.5t-163 -163.5l-178 139q111 156 228.5 228.5t299.5 72.5q215 0 344 -118.5t129 -311.5q0 -160 -82 -273.5t-290 -283.5l-295 -246h682v-221h-1037v199l494 419q152 127 210 210t58 178q0 102 -65.5 162.5t-165.5 60.5z" />
<glyph unicode="3" horiz-adv-x="1265" d="M788 1214h-620v220h948v-189l-399 -409q186 -25 304 -122.5t118 -283.5q0 -201 -140.5 -328t-361.5 -127q-342 0 -549 252l176 164q160 -188 377 -188q109 0 178.5 60.5t69.5 158.5q0 106 -88 164.5t-242 58.5h-117l-41 158z" />
<glyph unicode="4" horiz-adv-x="1394" d="M870 1444h215v-916h205v-206h-205v-322h-241v322h-723l-47 180zM844 528v568l-471 -568h471z" />
<glyph unicode="5" horiz-adv-x="1273" d="M193 731l40 703h857v-224h-639l-23 -336q113 41 227 41q221 0 359.5 -115.5t138.5 -336.5t-145.5 -354.5t-384.5 -133.5q-301 0 -527 220l156 182q184 -172 369 -172q129 0 206.5 68.5t77.5 181.5q0 111 -81 175t-216 64q-129 0 -264 -63z" />
<glyph unicode="6" horiz-adv-x="1343" d="M1169 1298l-135 -194q-162 125 -311 125q-156 0 -245 -126t-99 -329q147 143 342 144q217 0 359.5 -121t142.5 -332q0 -215 -152.5 -352.5t-380.5 -137.5q-246 0 -399 150q-86 88 -130 216t-44 335q0 344 160.5 563t453.5 219q239 0 438 -160zM971 455q0 111 -81 181.5 t-212 70.5t-211 -74t-80 -180q0 -113 82 -186.5t215 -73.5q131 0 209 73.5t78 188.5z" />
<glyph unicode="7" horiz-adv-x="1247" d="M139 1212v222h1008v-191l-647 -1243h-283l643 1212h-721z" />
<glyph unicode="8" horiz-adv-x="1290" d="M1192 397q0 -190 -153.5 -303.5t-393.5 -113.5q-238 0 -392.5 113.5t-154.5 297.5q0 244 258 352q-209 111 -209 322q0 166 141.5 277.5t356.5 111.5t356.5 -111.5t141.5 -277.5q0 -211 -209 -322q258 -119 258 -346zM901 1040q0 86 -71.5 144.5t-184.5 58.5 t-184.5 -58.5t-71.5 -142.5q0 -94 73 -154.5t183.5 -60.5t183 59.5t72.5 153.5zM946 408q0 98 -86 158.5t-215 60.5t-215 -60.5t-86 -158.5q0 -94 82 -156t219 -62t219 62t82 156z" />
<glyph unicode="9" horiz-adv-x="1343" d="M1227 758q0 -352 -165 -567.5t-450 -215.5q-252 0 -458 172l137 193q160 -135 327 -135q156 0 248 124t99 326q-127 -152 -336 -151q-229 0 -368.5 124t-139.5 333q0 215 149.5 356t384.5 141q246 0 398 -151q174 -174 174 -549zM956 975q0 115 -81.5 190.5t-217.5 75.5 q-131 0 -207.5 -77t-76.5 -191.5t79.5 -186t213 -71.5t212 74.5t78.5 185.5z" />
<glyph unicode=":" horiz-adv-x="571" d="M422 801h-272v280h272v-280zM422 0h-272v281h272v-281z" />
<glyph unicode=";" horiz-adv-x="571" d="M422 801h-272v280h272v-280zM80 -193q188 37 174 193h-104v281h272v-238q0 -166 -78 -247t-238 -93z" />
<glyph unicode="&#x3c;" horiz-adv-x="1310" d="M143 831l977 453v-235l-731 -326l731 -328v-237l-977 452v221z" />
<glyph unicode="=" horiz-adv-x="1310" d="M176 1092h959v-230h-959v230zM176 580h959v-230h-959v230z" />
<glyph unicode="&#x3e;" horiz-adv-x="1310" d="M1167 610l-977 -452v235l732 326l-732 328v237l977 -453v-221z" />
<glyph unicode="?" horiz-adv-x="1107" d="M393 795q379 14 379 231q0 88 -63.5 142.5t-171.5 54.5q-182 0 -334 -162l-154 164q201 227 494 227q217 0 348 -112.5t131 -305.5q0 -182 -112.5 -282.5t-299.5 -133.5l-20 -165h-166l-41 331zM639 0h-274v281h274v-281z" />
<glyph unicode="@" horiz-adv-x="2007" d="M1898 647q0 -246 -113.5 -378t-283.5 -132q-213 0 -303 144q-139 -143 -317 -144q-158 0 -264.5 107.5t-106.5 279.5q0 213 141.5 362.5t323.5 149.5q190 0 289 -151l24 123l199 -31l-90 -516q-10 -61 -11 -88q0 -68 43.5 -107t116.5 -39q115 0 193 109.5t78 310.5 q0 291 -235.5 512t-575.5 221q-346 0 -581 -238.5t-235 -580.5q0 -344 236 -579.5t596 -235.5q268 0 506 137l37 -61q-252 -154 -543 -154q-389 0 -651 261t-262 632q0 369 261 633t636 264q184 0 351 -67.5t284.5 -179t187 -259t69.5 -305.5zM1219 639q0 98 -61.5 159.5 t-153.5 61.5q-115 0 -200 -94t-85 -229q0 -104 59.5 -163t157.5 -59q113 0 198 95.5t85 228.5z" />
<glyph unicode="A" horiz-adv-x="1617" d="M926 1444l630 -1444h-266l-145 346h-678l-148 -346h-258l631 1444h234zM1053 569l-248 574l-246 -574h494z" />
<glyph unicode="B" horiz-adv-x="1478" d="M827 1434q217 0 344 -99.5t127 -267.5q0 -215 -204 -322q285 -96 284 -350q0 -190 -143 -292.5t-387 -102.5h-664v1434h643zM776 829q125 0 198 50.5t73 146.5q0 88 -66 136t-186 48h-363v-381h344zM850 223q131 0 203.5 51.5t72.5 147.5q0 195 -295 194h-399v-393h418z " />
<glyph unicode="C" horiz-adv-x="1511" d="M1432 229q-121 -127 -256.5 -190.5t-325.5 -63.5q-311 0 -520 214t-209 525.5t209 527.5t530 216q186 0 316.5 -57.5t244.5 -165.5l-161 -186q-193 178 -402 178q-205 0 -339 -146.5t-134 -361.5t135 -363.5t338 -148.5q123 0 217 46t195 140z" />
<glyph unicode="D" horiz-adv-x="1601" d="M1481 719q0 -307 -214 -513t-548 -206h-535v1434h535q334 0 548 -204t214 -511zM1217 715q0 215 -137.5 352t-360.5 137h-283v-975h283q223 0 360.5 136.5t137.5 349.5z" />
<glyph unicode="E" d="M1247 1434v-226h-811v-372h719v-226h-719v-385h821v-225h-1073v1434h1063z" />
<glyph unicode="F" horiz-adv-x="1343" d="M1251 1434v-230h-815v-391h723v-229h-723v-584h-252v1434h1067z" />
<glyph unicode="G" horiz-adv-x="1605" d="M1462 199q-260 -223 -598 -224q-332 0 -537.5 210t-205.5 530q0 307 210 525t529 218q180 0 307 -48t244 -146l-160 -191q-90 78 -181 116t-220 38q-197 0 -331 -148.5t-134 -359.5q0 -225 135 -369.5t352 -144.5q201 0 347 108v269h-367v219h610v-602z" />
<glyph unicode="H" horiz-adv-x="1556" d="M1120 604h-684v-604h-252v1434h252v-596h684v596h252v-1434h-252v604z" />
<glyph unicode="I" horiz-adv-x="649" d="M199 1434h252v-1434h-252v1434z" />
<glyph unicode="J" horiz-adv-x="1144" d="M983 487q0 -248 -131 -377.5t-350 -129.5q-289 0 -459 231l166 170q133 -168 289 -168q104 0 165.5 70.5t61.5 210.5v940h258v-947z" />
<glyph unicode="K" horiz-adv-x="1484" d="M831 817l623 -817h-305l-490 645l-223 -229v-416h-252v1434h252v-721l682 721h309z" />
<glyph unicode="L" horiz-adv-x="1267" d="M184 0v1434h252v-1205h754v-229h-1006z" />
<glyph unicode="M" horiz-adv-x="1777" d="M1341 1028l-452 -676h-8l-449 672v-1024h-248v1434h269l436 -678l436 678h268v-1434h-252v1028z" />
<glyph unicode="N" horiz-adv-x="1617" d="M1186 442v992h248v-1434h-211l-791 1020v-1020h-248v1434h234z" />
<glyph unicode="O" horiz-adv-x="1740" d="M1620 719q0 -309 -213 -526.5t-538.5 -217.5t-536.5 215.5t-211 524.5t213 526t538.5 217t536.5 -215t211 -524zM1356 715q0 213 -138.5 362.5t-349.5 149.5t-347 -147.5t-136 -360.5t138.5 -362.5t349 -149.5t347 147.5t136.5 360.5z" />
<glyph unicode="P" horiz-adv-x="1368" d="M1294 952q0 -233 -162.5 -362t-410.5 -129h-285v-461h-252v1434h566q250 0 397 -131.5t147 -350.5zM1038 946q0 125 -83 191.5t-226 66.5h-293v-516h293q141 0 225 70.5t84 187.5z" />
<glyph unicode="Q" horiz-adv-x="1740" d="M1475 276l163 -139l-161 -180l-172 154q-195 -135 -437 -136q-326 0 -536.5 215.5t-210.5 524.5t213 526t538.5 217t536.5 -215t211 -524q0 -246 -145 -443zM1118 276l-246 209l162 185l248 -226q74 113 74 271q0 213 -138.5 362.5t-349.5 149.5t-347 -147.5t-136 -360.5 t138.5 -362.5t348.5 -149.5q137 -1 246 69z" />
<glyph unicode="R" horiz-adv-x="1480" d="M1401 0h-297l-352 500h-316v-500h-252v1434h639q248 0 390.5 -122t142.5 -333q0 -172 -92.5 -282.5t-249.5 -153.5zM1100 965q0 117 -78 178t-219 61h-367v-481h369q135 0 215 65.5t80 176.5z" />
<glyph unicode="S" horiz-adv-x="1310" d="M397 1059q0 -86 69 -132t271 -96q238 -57 349.5 -153t111.5 -268q0 -199 -141.5 -314.5t-370.5 -115.5q-342 0 -598 229l152 180q215 -186 452 -186q117 0 185.5 49t68.5 133q0 82 -65.5 129t-257.5 92q-250 61 -364 151.5t-114 278.5q0 186 137.5 302t352.5 116 q295 0 520 -180l-135 -191q-199 147 -389 148q-109 0 -171.5 -49t-62.5 -123z" />
<glyph unicode="T" horiz-adv-x="1327" d="M791 1200v-1200h-254v1200h-455v234h1163v-234h-454z" />
<glyph unicode="U" horiz-adv-x="1550" d="M1389 1434v-813q0 -313 -164 -478.5t-453 -165.5q-285 0 -447.5 162t-162.5 469v826h252v-816q0 -197 96 -303t266 -106t265.5 102.5t95.5 296.5v826h252z" />
<glyph unicode="V" horiz-adv-x="1536" d="M772 332l430 1102h273l-596 -1444h-222l-596 1444h279z" />
<glyph unicode="W" horiz-adv-x="2285" d="M688 371l352 1067h213l353 -1067l342 1063h264l-500 -1444h-217l-352 1030l-352 -1030h-218l-499 1444h272z" />
<glyph unicode="X" horiz-adv-x="1492" d="M1417 0h-297l-377 543l-378 -543h-289l522 729l-502 705h297l357 -514l358 514h289l-500 -701z" />
<glyph unicode="Y" horiz-adv-x="1466" d="M860 571v-571h-254v565l-569 869h297l401 -635l406 635h289z" />
<glyph unicode="Z" horiz-adv-x="1437" d="M979 1210h-819v224h1147v-187l-846 -1024h846v-223h-1174v186z" />
<glyph unicode="[" horiz-adv-x="929" d="M809 1434v-195h-393v-1311h393v-194h-629v1700h629z" />
<glyph unicode="\" horiz-adv-x="1067" d="M193 1634l925 -1896h-215l-926 1896h216z" />
<glyph unicode="]" horiz-adv-x="929" d="M121 1434h631v-1700h-631v194h393v1311h-393v195z" />
<glyph unicode="^" horiz-adv-x="1024" d="M510 1280l-209 -270h-186l309 426h176l309 -426h-190z" />
<glyph unicode="_" horiz-adv-x="1228" d="M-4 -135h1237v-193h-1237v193z" />
<glyph unicode="`" horiz-adv-x="1024" d="M504 1219l-250 235l225 100l217 -335h-192z" />
<glyph unicode="a" horiz-adv-x="1202" d="M1063 0h-246v133q-131 -156 -350 -156q-162 0 -273.5 89.5t-111.5 244.5v4q0 170 121 259.5t317 89.5q158 0 299 -46v27q0 113 -68.5 172.5t-197.5 59.5q-147 0 -309 -68l-68 199q201 90 412 90q236 0 355.5 -119t119.5 -338v-641zM823 391v68q-111 43 -248 43 q-117 0 -182 -46t-65 -128v-4q0 -74 59 -117t150 -43q125 0 205.5 63.5t80.5 163.5z" />
<glyph unicode="b" d="M1274 541q0 -258 -149.5 -411t-354.5 -153q-223 0 -367 191v-168h-247v1495h247v-594q143 203 367 203q205 0 354.5 -152.5t149.5 -410.5zM1022 541q0 156 -90 252t-219 96q-131 0 -223.5 -97.5t-92.5 -251t92.5 -250.5t223.5 -97t220 95t89 253z" />
<glyph unicode="c" horiz-adv-x="1169" d="M1098 178q-88 -98 -191.5 -150.5t-251.5 -52.5q-240 0 -399.5 164t-159.5 398q0 236 161 401.5t400 165.5q262 0 433 -186l-154 -166q-129 135 -281 135q-133 0 -222 -100.5t-89 -245.5q0 -147 91 -249t233 -102q150 0 280 136z" />
<glyph unicode="d" d="M1219 0h-248v180q-143 -203 -369 -203q-203 0 -352.5 153t-149.5 411t148.5 410.5t353.5 152.5q221 0 369 -191v582h248v-1495zM975 540.5q0 153.5 -92 251t-221 97.5q-131 0 -221.5 -95.5t-90.5 -252.5q0 -156 91 -252t220.5 -96t221.5 97t92 250.5z" />
<glyph unicode="e" horiz-adv-x="1236" d="M344 453q20 -129 104 -202t207 -73q160 0 293 129l146 -129q-168 -203 -443 -203q-238 0 -396.5 158t-158.5 406q0 238 149.5 401.5t379.5 163.5q248 0 383 -167t135 -417q0 -18 -4 -67h-795zM342 616h555q-12 125 -84 205t-190 80q-113 0 -189 -79t-92 -206z" />
<glyph unicode="f" horiz-adv-x="770" d="M455 1073h286v-205h-282v-868h-248v868h-137v207h137v78q0 354 332 354q104 0 200 -28v-209q-80 27 -145 26q-143 0 -143 -163v-60z" />
<glyph unicode="g" d="M1219 221q0 -553 -582 -553q-270 0 -483 129l92 187q184 -115 385 -115q166 0 254 85t88 247v84q-154 -199 -381 -199q-201 0 -346.5 138t-145.5 369.5t146.5 371t345.5 139.5q225 0 379 -184v161h248v-860zM975 594q0 133 -92 217t-226 84q-131 0 -219 -83t-88 -216 t89 -217t218 -84q131 0 224.5 84t93.5 215z" />
<glyph unicode="h" horiz-adv-x="1269" d="M403 610v-610h-247v1495h247v-582q129 190 338 191q180 0 282.5 -112.5t102.5 -303.5v-688h-247v614q0 127 -60.5 196t-171.5 69q-109 0 -176.5 -72t-67.5 -197z" />
<glyph unicode="i" horiz-adv-x="585" d="M426 1247h-266v236h266v-236zM418 0h-248v1081h248v-1081z" />
<glyph unicode="j" horiz-adv-x="585" d="M426 1247h-266v236h266v-236zM170 1081h248v-1095q0 -319 -316 -320q-53 0 -118 10v199q37 -6 69 -6q117 0 117 131v1081z" />
<glyph unicode="k" horiz-adv-x="1191" d="M723 641l444 -641h-286l-326 467l-152 -158v-309h-247v1495h247v-893l449 479h301z" />
<glyph unicode="l" horiz-adv-x="585" d="M418 0h-248v1495h248v-1495z" />
<glyph unicode="m" horiz-adv-x="1945" d="M1055 913q145 190 366 191q178 0 278.5 -108.5t100.5 -305.5v-690h-248v614q0 129 -57 197t-161.5 68t-168 -71t-63.5 -198v-610h-248v616q0 125 -57.5 194t-162 69t-168 -73t-63.5 -198v-608h-247v1081h247v-163q135 186 330 186q226 -1 322 -191z" />
<glyph unicode="n" horiz-adv-x="1269" d="M403 610v-610h-247v1081h247v-168q129 190 338 191q180 0 282.5 -112.5t102.5 -303.5v-688h-247v614q0 127 -60.5 196t-171.5 69q-109 0 -176.5 -72t-67.5 -197z" />
<glyph unicode="o" horiz-adv-x="1345" d="M1249 540.5q0 -235.5 -165.5 -400.5t-413.5 -165q-246 0 -410 164t-164 398q0 236 166 401.5t412 165.5t410.5 -164t164.5 -399.5zM1001 536.5q0 147.5 -94 249t-237 101.5q-145 0 -235.5 -99.5t-90.5 -247t93 -249t237 -101.5q147 0 237 99.5t90 247z" />
<glyph unicode="p" d="M1274 541q0 -258 -149.5 -411t-354.5 -153q-223 0 -367 191v-496h-247v1409h247v-180q143 203 367 203q205 0 354.5 -152.5t149.5 -410.5zM1022 541q0 156 -90 252t-219 96q-131 0 -223.5 -97.5t-92.5 -251t92.5 -250.5t223.5 -97t220 95t89 253z" />
<glyph unicode="q" d="M1219 -328h-248v508q-143 -203 -369 -203q-203 0 -352.5 153t-149.5 411t148.5 410.5t353.5 152.5q221 0 369 -191v168h248v-1409zM975 540.5q0 153.5 -92 251t-221 97.5q-131 0 -221.5 -95.5t-90.5 -252.5q0 -156 91 -252t220.5 -96t221.5 97t92 250.5z" />
<glyph unicode="r" horiz-adv-x="845" d="M403 412v-412h-247v1081h247v-243q110 265 361 264h22v-262h-14q-168 0 -268.5 -109.5t-100.5 -318.5z" />
<glyph unicode="s" horiz-adv-x="1024" d="M928 319q0 -164 -113 -251.5t-289 -87.5q-254 0 -458 161l110 168q176 -133 354 -133q80 0 124 32t44 85v4q0 78 -217 143l-24 9q-74 20 -123 40.5t-104.5 56.5t-83 91t-27.5 129v4q0 150 109.5 240t275.5 90q211 0 397 -123l-98 -176q-168 102 -305 102 q-72 0 -112 -29.5t-40 -78.5v-4q0 -49 54.5 -79t168.5 -67l21 -6q72 -23 121 -44.5t103 -58t83 -90t29 -122.5v-5z" />
<glyph unicode="t" horiz-adv-x="839" d="M455 868v-530q0 -135 133 -135q80 0 153 37v-203q-98 -55 -223 -55q-311 0 -311 317v569h-137v213h137v297h248v-297h290v-213h-290z" />
<glyph unicode="u" horiz-adv-x="1269" d="M866 471v610h248v-1081h-248v168q-129 -190 -338 -191q-180 0 -282.5 113t-102.5 303v688h248v-614q0 -127 60.5 -195.5t171.5 -68.5q109 0 176 71.5t67 196.5z" />
<glyph unicode="v" horiz-adv-x="1218" d="M610 287l293 794h260l-442 -1089h-223l-445 1089h266z" />
<glyph unicode="w" horiz-adv-x="1763" d="M987 1085l242 -745l221 741h248l-355 -1089h-221l-241 739l-244 -739h-221l-350 1089h253l218 -741l239 745h211z" />
<glyph unicode="x" horiz-adv-x="1187" d="M727 555l399 -555h-270l-266 379l-264 -379h-265l398 549l-383 532h270l250 -356l250 356h264z" />
<glyph unicode="y" horiz-adv-x="1220" d="M1163 1081l-430 -1112q-66 -166 -145.5 -234.5t-210.5 -68.5q-135 0 -256 66l84 184q76 -41 145 -41q53 0 88 27.5t66 97.5l-451 1081h264l308 -802l280 802h258z" />
<glyph unicode="z" horiz-adv-x="1146" d="M731 879h-602v202h918v-170l-625 -708h625v-203h-941v170z" />
<glyph unicode="{" horiz-adv-x="997" d="M895 1300q-176 -49 -227.5 -105t-51.5 -175q0 -20 2.5 -74.5t2.5 -77.5q0 -115 -53.5 -180t-159.5 -100q109 -35 161 -100.5t52 -180.5q0 -23 -2.5 -77t-2.5 -74q0 -119 51.5 -175.5t227.5 -105.5l-43 -164q-266 49 -365.5 145.5t-99.5 264.5q0 14 2 71.5t2 75.5 q0 121 -52 173.5t-179 52.5h-54v188h54q127 0 179 52t52 173q0 18 -2 75.5t-2 72.5q0 168 99.5 264t365.5 145z" />
<glyph unicode="|" horiz-adv-x="677" d="M438 -262h-198v1896h198v-1896z" />
<glyph unicode="}" horiz-adv-x="997" d="M102 -125q176 49 227.5 105.5t51.5 175.5q0 20 -2 74.5t-2 76.5q0 115 53 180.5t160 100.5q-109 35 -161 100.5t-52 179.5q0 23 2 77t2 75q0 119 -51 175t-228 105l43 164q266 -49 365.5 -145t99.5 -264q0 -14 -2 -71.5t-2 -76.5q0 -121 52.5 -173t179.5 -52h53v-188h-53 q-127 0 -179.5 -52.5t-52.5 -173.5q0 -18 2 -75.5t2 -71.5q0 -168 -99 -264.5t-366 -145.5z" />
<glyph unicode="~" horiz-adv-x="1013" d="M893 745q-35 -131 -87 -193.5t-142 -62.5q-61 0 -162 41t-131 41q-43 0 -66.5 -23.5t-46.5 -78.5l-137 43q35 131 87 192.5t142 61.5q61 0 161.5 -41t131.5 -41q43 0 66.5 23.5t46.5 78.5z" />
<glyph unicode="&#xa1;" horiz-adv-x="618" d="M174 1434h272v-281h-272v281zM455 0h-291v72l78 909h137l76 -909v-72z" />
<glyph unicode="&#xa2;" horiz-adv-x="1189" d="M1102 371q-180 -205 -434 -207q-16 0 -25 2l-33 -178h-180l41 207q-162 59 -263.5 203.5t-101.5 326.5q0 236 161 400.5t399 164.5h18l31 156h180l-37 -182q129 -37 242 -160l-150 -160q-80 78 -143 100l-129 -661q6 -2 20 -2q137 8 260 131zM649 1075h-4 q-129 -6 -213 -105.5t-84 -240.5q0 -104 47 -187t127 -126z" />
<glyph unicode="&#xa3;" horiz-adv-x="1318" d="M291 782v189q0 225 124 354t347 129q279 0 452 -229l-192 -154q-59 76 -117.5 113t-140.5 37q-102 0 -160.5 -69t-58.5 -187v-183h510v-213h-510v-350h665v-219h-1081v160l162 49v360h-162v213h162z" />
<glyph unicode="&#xa4;" horiz-adv-x="1474" d="M266 809h-160v174h193q63 215 216 345t366 130q174 0 291.5 -70.5t207.5 -199.5l-190 -141q-70 96 -141.5 141t-174.5 45q-109 0 -189.5 -66.5t-123.5 -183.5h438v-174h-479q-4 -57 -4 -90q0 -27 4 -84h479v-174h-442q43 -121 129 -190.5t205 -69.5q96 0 165.5 47 t147.5 147l180 -131q-96 -139 -213.5 -214t-281.5 -75q-223 0 -380 132.5t-216 353.5h-187v174h158q-2 27 -2 80q0 63 4 94z" />
<glyph unicode="&#xa5;" horiz-adv-x="1404" d="M823 541v-150h396v-182h-396v-209h-241v209h-396v182h396v150h-396v182h326l-473 711h293l375 -600l374 600h285l-475 -711h328v-182h-396z" />
<glyph unicode="&#xa7;" horiz-adv-x="1294" d="M1176 717q0 -180 -220 -240q113 -72 113 -196q0 -137 -107.5 -219t-293.5 -82q-289 0 -473 194l141 139q156 -145 330 -145q82 0 123.5 27.5t41.5 74.5t-55 78t-215 68q-242 55 -342 121.5t-100 179.5q0 180 219 239q-113 72 -113 197q0 137 107.5 219t294.5 82 q289 0 473 -194l-142 -140q-156 145 -329 146q-82 0 -124 -28t-42 -75t55 -77.5t215 -67.5q242 -55 342.5 -121.5t100.5 -179.5zM952 682q0 47 -55 80t-184 65q-147 37 -213 37q-72 0 -115 -31.5t-43 -80.5q0 -47 55.5 -80t184.5 -66q145 -37 213 -37q72 0 114.5 32t42.5 81 z" />
<glyph unicode="&#xa8;" horiz-adv-x="1024" d="M842 1219h-252v241h252v-241zM434 1219h-252v241h252v-241z" />
<glyph unicode="&#xa9;" horiz-adv-x="1699" d="M1591 719q0 -305 -217 -524.5t-526 -219.5t-524 217.5t-215 522.5t217 524t526 219t524 -217t215 -522zM1513 718.5q0 278.5 -190 472t-471 193.5q-283 0 -474.5 -195.5t-191.5 -474t190.5 -472t471.5 -193.5q283 0 474 195.5t191 474zM1174 465q-133 -139 -316 -139 q-168 0 -280.5 115.5t-112.5 283.5t112.5 285.5t284.5 117.5q180 0 305 -120l-96 -111q-102 92 -209 92q-104 0 -172.5 -75.5t-68.5 -186.5q0 -109 69.5 -185.5t171.5 -76.5q111 0 213 96z" />
<glyph unicode="&#xaa;" horiz-adv-x="798" d="M653 838h-139v69q-72 -82 -188 -82q-90 0 -150.5 49.5t-60.5 137.5q0 94 66.5 143t178.5 49q74 0 156 -22v10q0 125 -143 125q-72 0 -170 -39l-39 111q109 51 229 51q260 0 260 -250v-352zM662 578h-553v118h553v-118zM516 1053v37q-63 23 -129 22q-61 0 -96 -24.5 t-35 -69.5q0 -41 29.5 -64.5t76.5 -23.5q66 0 110 35t44 88z" />
<glyph unicode="&#xab;" horiz-adv-x="1241" d="M944 999l189 -96l-271 -360l271 -363l-189 -96l-338 448v17zM430 999l188 -96l-270 -360l270 -363l-188 -96l-340 448v17z" />
<glyph unicode="&#xad;" horiz-adv-x="835" d="M721 506h-606v244h606v-244z" />
<glyph unicode="&#xae;" horiz-adv-x="1699" d="M1591 719q0 -305 -217 -524.5t-526 -219.5t-524 217.5t-215 522.5t217 524t526 219t524 -217t215 -522zM1513 718.5q0 278.5 -190 472t-471 193.5q-283 0 -474.5 -195.5t-191.5 -474t190.5 -472t471.5 -193.5q283 0 474 195.5t191 474zM1196 879q0 -92 -48 -151.5 t-132 -84.5l209 -293h-176l-189 268h-162v-268h-147v776h346q137 0 218 -66t81 -181zM1044 870q0 123 -153 123h-193v-245h193q72 0 112.5 32.5t40.5 89.5z" />
<glyph unicode="&#xaf;" horiz-adv-x="1024" d="M862 1229h-700v182h700v-182z" />
<glyph unicode="&#xb0;" horiz-adv-x="964" d="M823 1114q0 -135 -103.5 -234.5t-238.5 -99.5t-237.5 99.5t-102.5 234.5q0 133 102.5 232.5t237.5 99.5t238.5 -99.5t103.5 -232.5zM676 1114q0 80 -56.5 138.5t-138.5 58.5t-137 -58.5t-55 -138.5q0 -82 55 -140.5t137 -58.5q84 0 139.5 58.5t55.5 140.5z" />
<glyph unicode="&#xb1;" horiz-adv-x="1249" d="M1147 410q0 -190 -137.5 -312.5t-372.5 -122.5q-338 0 -557 250l174 162q164 -184 387 -184q119 0 187.5 56t68.5 153q0 98 -83 151t-232 53h-154v213h160q125 0 197.5 56.5t72.5 150.5q0 88 -66.5 141.5t-181.5 53.5q-172 0 -325 -180l-176 143q100 129 218.5 196.5 t286.5 67.5q221 0 357.5 -108.5t136.5 -276.5q0 -233 -213 -338q252 -96 252 -325z" />
<glyph unicode="&#xb2;" horiz-adv-x="1255" d="M631 1229q-94 0 -169 -51.5t-163 -163.5l-178 139q111 156 228.5 228.5t299.5 72.5q215 0 344 -118.5t129 -311.5q0 -160 -82 -273.5t-290 -283.5l-295 -246h682v-221h-1037v199l494 419q152 127 210 210t58 178q0 102 -65.5 162.5t-165.5 60.5z" />
<glyph unicode="&#xb3;" horiz-adv-x="1265" d="M788 1214h-620v220h948v-189l-399 -409q186 -25 304 -122.5t118 -283.5q0 -201 -140.5 -328t-361.5 -127q-342 0 -549 252l176 164q160 -188 377 -188q109 0 178.5 60.5t69.5 158.5q0 106 -88 164.5t-242 58.5h-117l-41 158z" />
<glyph unicode="&#xb4;" horiz-adv-x="1024" d="M520 1219h-192l217 335l225 -100z" />
<glyph unicode="&#xb5;" horiz-adv-x="1740" d="M1620 719q0 -162 -64.5 -305.5t-181.5 -247.5l359 -356v-17h-369l-238 227q-125 -45 -258 -45q-326 0 -536.5 215.5t-210.5 524.5t213 526t538.5 217t536.5 -215t211 -524zM1356 715q0 213 -138.5 362.5t-349.5 149.5t-347 -147.5t-136 -360.5t138.5 -362.5t349 -149.5 t347 147.5t136.5 360.5z" />
<glyph unicode="&#xb6;" horiz-adv-x="1140" d="M637 1434h326v-1434h-254v500h-37q-262 0 -426 121.5t-164 345.5q0 217 152.5 342t402.5 125z" />
<glyph unicode="&#xb7;" horiz-adv-x="550" d="M412 487h-273v281h273v-281z" />
<glyph unicode="&#xb8;" horiz-adv-x="1024" d="M453 20h186l-154 -358l-217 90z" />
<glyph unicode="&#xb9;" horiz-adv-x="811" d="M53 1321l385 123h176v-1444h-249v1188l-259 -72z" />
<glyph unicode="&#xba;" horiz-adv-x="798" d="M709 1135q0 -131 -89.5 -221.5t-222.5 -90.5q-131 0 -219 90.5t-88 219.5q0 131 89 221t222 90q131 0 219.5 -90t88.5 -219zM694 578h-590v118h590v-118zM565 1133q0 76 -48 130t-120 54q-74 0 -119 -52.5t-45 -129.5q0 -76 48.5 -130.5t119.5 -54.5q74 0 119 52.5 t45 130.5z" />
<glyph unicode="&#xbb;" horiz-adv-x="1241" d="M811 84l-188 94l270 361l-270 362l188 98l340 -450v-17zM297 84l-188 94l270 361l-270 362l188 98l338 -450v-17z" />
<glyph unicode="&#xbc;" horiz-adv-x="3145" d="M2621 1444h215v-916h205v-206h-205v-322h-241v322h-723l-47 180zM2595 528v568l-471 -568h471zM1624 1552h225l-956 -1753h-225zM53 1321l385 123h176v-1444h-249v1188l-259 -72z" />
<glyph unicode="&#xbd;" horiz-adv-x="3006" d="M2382 1229q-94 0 -169 -51.5t-163 -163.5l-178 139q111 156 228.5 228.5t299.5 72.5q215 0 344 -118.5t129 -311.5q0 -160 -82 -273.5t-290 -283.5l-295 -246h682v-221h-1037v199l494 419q152 127 210 210t58 178q0 102 -65.5 162.5t-165.5 60.5zM1624 1552h225 l-956 -1753h-225zM53 1321l385 123h176v-1444h-249v1188l-259 -72z" />
<glyph unicode="&#xbe;" horiz-adv-x="3600" d="M3076 1444h215v-916h205v-206h-205v-322h-241v322h-723l-47 180zM3050 528v568l-471 -568h471zM2079 1552h225l-956 -1753h-225zM788 1214h-620v220h948v-189l-399 -409q186 -25 304 -122.5t118 -283.5q0 -201 -140.5 -328t-361.5 -127q-342 0 -549 252l176 164 q160 -188 377 -188q109 0 178.5 60.5t69.5 158.5q0 106 -88 164.5t-242 58.5h-117l-41 158z" />
<glyph unicode="&#xbf;" horiz-adv-x="1107" d="M469 1434h274v-281h-274v281zM715 639q-379 -14 -379 -231q0 -88 63.5 -142.5t171.5 -54.5q182 0 334 162l154 -164q-201 -227 -494 -227q-217 0 -348 112.5t-131 304.5q0 182 112.5 282.5t299.5 133.5l20 166h166l41 -332z" />
<glyph unicode="&#xc0;" horiz-adv-x="1617" d="M926 1444l630 -1444h-266l-145 346h-678l-148 -346h-258l631 1444h234zM1053 569l-248 574l-246 -574h494zM719 1552l-250 236l225 100l217 -336h-192z" />
<glyph unicode="&#xc1;" horiz-adv-x="1617" d="M926 1444l630 -1444h-266l-145 346h-678l-148 -346h-258l631 1444h234zM1053 569l-248 574l-246 -574h494zM899 1552h-192l217 336l225 -100z" />
<glyph unicode="&#xc2;" horiz-adv-x="1617" d="M926 1444l630 -1444h-266l-145 346h-678l-148 -346h-258l631 1444h234zM1053 569l-248 574l-246 -574h494zM807 1688l-158 -138h-192l237 299h230l237 -299h-196z" />
<glyph unicode="&#xc3;" horiz-adv-x="1617" d="M926 1444l630 -1444h-266l-145 346h-678l-148 -346h-258l631 1444h234zM1053 569l-248 574l-246 -574h494zM1196 1806q-35 -131 -87 -192.5t-142 -61.5q-61 0 -161.5 41t-133.5 41q-41 0 -64.5 -22.5t-48.5 -79.5l-137 41q35 131 87 193.5t142 62.5q61 0 161.5 -41 t133.5 -41q41 0 64.5 22.5t48.5 79.5z" />
<glyph unicode="&#xc4;" horiz-adv-x="1617" d="M926 1444l630 -1444h-266l-145 346h-678l-148 -346h-258l631 1444h234zM1053 569l-248 574l-246 -574h494zM1139 1552h-252v242h252v-242zM731 1552h-252v242h252v-242z" />
<glyph unicode="&#xc5;" horiz-adv-x="1617" d="M672 1401q-96 72 -97 180q0 92 71 158.5t163 66.5t162.5 -66.5t70.5 -158.5q0 -109 -96 -180l610 -1401h-266l-145 346h-678l-148 -346h-258zM936 1581q0 53 -38 90t-89 37t-89 -37t-38 -90t38 -90t89 -37t89 37t38 90zM1053 569l-248 574l-246 -574h494z" />
<glyph unicode="&#xc6;" horiz-adv-x="2140" d="M475 346l-190 -346h-260l800 1434h1190v-226h-766v-372h674v-226h-674v-385h776v-225h-1028v346h-522zM956 1214l-360 -645h401v645h-41z" />
<glyph unicode="&#xc7;" horiz-adv-x="1511" d="M707 -10q-258 47 -422 249.5t-164 475.5q0 311 209 527t530 216q186 0 316.5 -57.5t244.5 -165.5l-161 -186q-193 178 -402 178q-205 0 -339 -146.5t-134 -361.5t135 -363.5t338 -148.5q123 0 217 46t195 140l162 -164q-113 -119 -239 -181t-298 -71l-135 -315l-215 90z " />
<glyph unicode="&#xc8;" d="M1247 1434v-226h-811v-372h719v-226h-719v-385h821v-225h-1073v1434h1063zM670 1552l-250 236l225 100l217 -336h-192z" />
<glyph unicode="&#xc9;" d="M1247 1434v-226h-811v-372h719v-226h-719v-385h821v-225h-1073v1434h1063zM760 1552h-193l217 336l226 -100z" />
<glyph unicode="&#xca;" d="M1247 1434v-226h-811v-372h719v-226h-719v-385h821v-225h-1073v1434h1063zM709 1690l-158 -138h-193l238 299h229l238 -299h-197z" />
<glyph unicode="&#xcb;" d="M1247 1434v-226h-811v-372h719v-226h-719v-385h821v-225h-1073v1434h1063zM1040 1552h-252v242h252v-242zM633 1552h-252v242h252v-242z" />
<glyph unicode="&#xcc;" horiz-adv-x="649" d="M199 1434h252v-1434h-252v1434zM238 1552l-250 236l225 100l217 -336h-192z" />
<glyph unicode="&#xcd;" horiz-adv-x="649" d="M199 1434h252v-1434h-252v1434zM414 1552h-193l217 336l226 -100z" />
<glyph unicode="&#xce;" horiz-adv-x="649" d="M199 1434h252v-1434h-252v1434zM324 1690l-158 -138h-193l238 299h229l238 -299h-197z" />
<glyph unicode="&#xcf;" horiz-adv-x="649" d="M199 1434h252v-1434h-252v1434zM655 1552h-252v242h252v-242zM248 1552h-252v242h252v-242z" />
<glyph unicode="&#xd0;" horiz-adv-x="1662" d="M246 608h-154v226h154v600h534q334 0 548 -204t214 -511t-214 -513t-548 -206h-534v608zM496 834h360v-226h-360v-379h284q223 0 360.5 136.5t137.5 349.5q0 215 -137 352t-361 137h-284v-370z" />
<glyph unicode="&#xd1;" horiz-adv-x="1617" d="M1186 442v992h248v-1434h-211l-791 1020v-1020h-248v1434h234zM1196 1806q-35 -131 -87 -192.5t-142 -61.5q-61 0 -161.5 41t-133.5 41q-41 0 -64.5 -22.5t-48.5 -79.5l-137 41q35 131 87 193.5t142 62.5q61 0 161.5 -41t133.5 -41q41 0 64.5 22.5t48.5 79.5z" />
<glyph unicode="&#xd2;" horiz-adv-x="1740" d="M1620 719q0 -309 -213 -526.5t-538.5 -217.5t-536.5 215.5t-211 524.5t213 526t538.5 217t536.5 -215t211 -524zM1356 715q0 213 -138.5 362.5t-349.5 149.5t-347 -147.5t-136 -360.5t138.5 -362.5t349 -149.5t347 147.5t136.5 360.5zM766 1552l-250 236l225 100 l217 -336h-192z" />
<glyph unicode="&#xd3;" horiz-adv-x="1740" d="M1620 719q0 -309 -213 -526.5t-538.5 -217.5t-536.5 215.5t-211 524.5t213 526t538.5 217t536.5 -215t211 -524zM1356 715q0 213 -138.5 362.5t-349.5 149.5t-347 -147.5t-136 -360.5t138.5 -362.5t349 -149.5t347 147.5t136.5 360.5zM975 1552h-193l217 336l226 -100z " />
<glyph unicode="&#xd4;" horiz-adv-x="1740" d="M1620 719q0 -309 -213 -526.5t-538.5 -217.5t-536.5 215.5t-211 524.5t213 526t538.5 217t536.5 -215t211 -524zM1356 715q0 213 -138.5 362.5t-349.5 149.5t-347 -147.5t-136 -360.5t138.5 -362.5t349 -149.5t347 147.5t136.5 360.5zM868 1690l-157 -138h-193l238 299 h229l238 -299h-197z" />
<glyph unicode="&#xd5;" horiz-adv-x="1740" d="M1620 719q0 -309 -213 -526.5t-538.5 -217.5t-536.5 215.5t-211 524.5t213 526t538.5 217t536.5 -215t211 -524zM1356 715q0 213 -138.5 362.5t-349.5 149.5t-347 -147.5t-136 -360.5t138.5 -362.5t349 -149.5t347 147.5t136.5 360.5zM1257 1806q-35 -131 -87 -192.5 t-142 -61.5q-61 0 -161.5 41t-133.5 41q-41 0 -64.5 -22.5t-47.5 -79.5l-138 41q35 131 87.5 193.5t142.5 62.5q61 0 161.5 -41t133.5 -41q41 0 64.5 22.5t47.5 79.5z" />
<glyph unicode="&#xd6;" horiz-adv-x="1740" d="M1620 719q0 -309 -213 -526.5t-538.5 -217.5t-536.5 215.5t-211 524.5t213 526t538.5 217t536.5 -215t211 -524zM1356 715q0 213 -138.5 362.5t-349.5 149.5t-347 -147.5t-136 -360.5t138.5 -362.5t349 -149.5t347 147.5t136.5 360.5zM1200 1552h-252v242h252v-242z M793 1552h-252v242h252v-242z" />
<glyph unicode="&#xd8;" horiz-adv-x="1740" d="M1620 719q0 -309 -213 -526.5t-539 -217.5q-233 0 -417 123l-99 -108h-248l203 229q-186 203 -186 496q0 309 213 526t538 217q233 0 418 -123l99 109h247l-202 -230q186 -202 186 -495zM1130 1151q-117 80 -262 80q-211 0 -350 -149.5t-139 -362.5q0 -170 96 -307z M1362 715q0 170 -96 307l-656 -739q117 -80 262 -80q211 0 350.5 149.5t139.5 362.5z" />
<glyph unicode="&#xd9;" horiz-adv-x="1550" d="M1389 1434v-813q0 -313 -164 -478.5t-453 -165.5q-285 0 -447.5 162t-162.5 469v826h252v-816q0 -197 96 -303t266 -106t265.5 102.5t95.5 296.5v826h252zM698 1542l-249 236l225 100l217 -336h-193z" />
<glyph unicode="&#xda;" horiz-adv-x="1550" d="M1389 1434v-813q0 -313 -164 -478.5t-453 -165.5q-285 0 -447.5 162t-162.5 469v826h252v-816q0 -197 96 -303t266 -106t265.5 102.5t95.5 296.5v826h252zM852 1542h-193l218 336l225 -100z" />
<glyph unicode="&#xdb;" horiz-adv-x="1550" d="M1389 1434v-813q0 -313 -164 -478.5t-453 -165.5q-285 0 -447.5 162t-162.5 469v826h252v-816q0 -197 96 -303t266 -106t265.5 102.5t95.5 296.5v826h252zM774 1688l-158 -138h-192l238 299h229l237 -299h-196z" />
<glyph unicode="&#xdc;" horiz-adv-x="1550" d="M1389 1434v-813q0 -313 -164 -478.5t-453 -165.5q-285 0 -447.5 162t-162.5 469v826h252v-816q0 -197 96 -303t266 -106t265.5 102.5t95.5 296.5v826h252zM1106 1550h-252v242h252v-242zM698 1550h-252v242h252v-242z" />
<glyph unicode="&#xdd;" horiz-adv-x="1466" d="M860 571v-571h-254v565l-569 869h297l401 -635l406 635h289zM829 1542h-192l217 336l225 -100z" />
<glyph unicode="&#xde;" horiz-adv-x="1378" d="M1294 729q0 -236 -162.5 -363.5t-410.5 -127.5h-285v-238h-252v1434h252v-226h314q250 0 397 -130t147 -349zM1038 723q0 125 -83 191.5t-226 66.5h-293v-518h293q141 0 225 71.5t84 188.5z" />
<glyph unicode="&#xdf;" horiz-adv-x="1269" d="M1083 1122q0 -227 -225 -352q311 -106 311 -367q0 -199 -151.5 -307t-411.5 -100v190q152 4 234 61.5t82 162.5q0 98 -85 157.5t-231 77.5v168q231 113 232 287q0 90 -56.5 144t-150.5 54q-102 0 -166 -71.5t-64 -190.5v-1036h-245v1028q0 223 131 352t356 129 q203 0 321.5 -109.5t118.5 -277.5z" />
<glyph unicode="&#xe0;" horiz-adv-x="1202" d="M1063 0h-246v133q-131 -156 -350 -156q-162 0 -273.5 89.5t-111.5 244.5v4q0 170 121 259.5t317 89.5q158 0 299 -46v27q0 113 -68.5 172.5t-197.5 59.5q-147 0 -309 -68l-68 199q201 90 412 90q236 0 355.5 -119t119.5 -338v-641zM823 391v68q-111 43 -248 43 q-117 0 -182 -46t-65 -128v-4q0 -74 59 -117t150 -43q125 0 205.5 63.5t80.5 163.5zM526 1219l-250 235l226 100l217 -335h-193z" />
<glyph unicode="&#xe1;" horiz-adv-x="1202" d="M1063 0h-246v133q-131 -156 -350 -156q-162 0 -273.5 89.5t-111.5 244.5v4q0 170 121 259.5t317 89.5q158 0 299 -46v27q0 113 -68.5 172.5t-197.5 59.5q-147 0 -309 -68l-68 199q201 90 412 90q236 0 355.5 -119t119.5 -338v-641zM823 391v68q-111 43 -248 43 q-117 0 -182 -46t-65 -128v-4q0 -74 59 -117t150 -43q125 0 205.5 63.5t80.5 163.5zM674 1219h-193l217 335l226 -100z" />
<glyph unicode="&#xe2;" horiz-adv-x="1202" d="M1063 0h-246v133q-131 -156 -350 -156q-162 0 -273.5 89.5t-111.5 244.5v4q0 170 121 259.5t317 89.5q158 0 299 -46v27q0 113 -68.5 172.5t-197.5 59.5q-147 0 -309 -68l-68 199q201 90 412 90q236 0 355.5 -119t119.5 -338v-641zM823 391v68q-111 43 -248 43 q-117 0 -182 -46t-65 -128v-4q0 -74 59 -117t150 -43q125 0 205.5 63.5t80.5 163.5zM598 1356l-158 -137h-192l237 299h230l237 -299h-196z" />
<glyph unicode="&#xe3;" horiz-adv-x="1202" d="M1063 0h-246v133q-131 -156 -350 -156q-162 0 -273.5 89.5t-111.5 244.5v4q0 170 121 259.5t317 89.5q158 0 299 -46v27q0 113 -68.5 172.5t-197.5 59.5q-147 0 -309 -68l-68 199q201 90 412 90q236 0 355.5 -119t119.5 -338v-641zM823 391v68q-111 43 -248 43 q-117 0 -182 -46t-65 -128v-4q0 -74 59 -117t150 -43q125 0 205.5 63.5t80.5 163.5zM989 1473q-35 -131 -87 -192.5t-142 -61.5q-61 0 -161.5 40.5t-133.5 40.5q-43 0 -65.5 -22.5t-47.5 -79.5l-137 41q35 131 87 193.5t142 62.5q61 0 162 -41t133 -41q43 0 65.5 22.5 t47.5 80.5z" />
<glyph unicode="&#xe4;" horiz-adv-x="1202" d="M1063 0h-246v133q-131 -156 -350 -156q-162 0 -273.5 89.5t-111.5 244.5v4q0 170 121 259.5t317 89.5q158 0 299 -46v27q0 113 -68.5 172.5t-197.5 59.5q-147 0 -309 -68l-68 199q201 90 412 90q236 0 355.5 -119t119.5 -338v-641zM823 391v68q-111 43 -248 43 q-117 0 -182 -46t-65 -128v-4q0 -74 59 -117t150 -43q125 0 205.5 63.5t80.5 163.5zM930 1219h-252v241h252v-241zM522 1219h-252v241h252v-241z" />
<glyph unicode="&#xe5;" horiz-adv-x="1202" d="M1063 0h-246v133q-131 -156 -350 -156q-162 0 -273.5 89.5t-111.5 244.5v4q0 170 121 259.5t317 89.5q158 0 299 -46v27q0 113 -68.5 172.5t-197.5 59.5q-147 0 -309 -68l-68 199q201 90 412 90q236 0 355.5 -119t119.5 -338v-641zM823 391v68q-111 43 -248 43 q-117 0 -182 -46t-65 -128v-4q0 -74 59 -117t150 -43q125 0 205.5 63.5t80.5 163.5zM834 1440q0 -92 -71 -159t-163 -67t-162.5 67t-70.5 159t70.5 158.5t162.5 66.5t163 -66.5t71 -158.5zM727 1440q0 51 -38 89t-89 38t-89 -38t-38 -89t38 -89t89 -38t89 38t38 89z" />
<glyph unicode="&#xe6;" horiz-adv-x="1949" d="M944 160q-219 -182 -452 -183q-186 0 -298 89.5t-112 250.5q0 168 121 257.5t317 89.5q158 0 299 -46v27q0 113 -68.5 172.5t-197.5 59.5q-147 0 -309 -68l-68 199q201 90 406 90q279 0 381 -178q141 184 378 184q244 0 378 -167t134 -417q0 -43 -2 -67h-794 q20 -129 104 -202t205 -73q162 0 295 129l145 -129q-172 -203 -444 -203q-260 1 -418 185zM1053 616h557q-12 125 -84 205t-191 80q-113 0 -189.5 -79t-92.5 -206zM813 465q-104 37 -238 37q-117 0 -182 -46t-65 -128q0 -78 59 -121t150 -43q172 0 317 135q-33 82 -41 166z " />
<glyph unicode="&#xe7;" horiz-adv-x="1169" d="M512 -6q-184 47 -300 196.5t-116 346.5q0 236 161 401.5t400 165.5q262 0 433 -186l-154 -166q-129 135 -281 135q-133 0 -222 -100.5t-89 -245.5q0 -147 91 -249t233 -102q150 0 280 136l150 -148q-84 -92 -177.5 -143t-222.5 -58l-133 -315l-217 90z" />
<glyph unicode="&#xe8;" horiz-adv-x="1236" d="M344 453q20 -129 104 -202t207 -73q160 0 293 129l146 -129q-168 -203 -443 -203q-238 0 -396.5 158t-158.5 406q0 238 149.5 401.5t379.5 163.5q248 0 383 -167t135 -417q0 -18 -4 -67h-795zM342 616h555q-12 125 -84 205t-190 80q-113 0 -189 -79t-92 -206zM535 1219 l-250 235l225 100l217 -335h-192z" />
<glyph unicode="&#xe9;" horiz-adv-x="1236" d="M344 453q20 -129 104 -202t207 -73q160 0 293 129l146 -129q-168 -203 -443 -203q-238 0 -396.5 158t-158.5 406q0 238 149.5 401.5t379.5 163.5q248 0 383 -167t135 -417q0 -18 -4 -67h-795zM342 616h555q-12 125 -84 205t-190 80q-113 0 -189 -79t-92 -206zM702 1219 h-192l217 335l225 -100z" />
<glyph unicode="&#xea;" horiz-adv-x="1236" d="M344 453q20 -129 104 -202t207 -73q160 0 293 129l146 -129q-168 -203 -443 -203q-238 0 -396.5 158t-158.5 406q0 238 149.5 401.5t379.5 163.5q248 0 383 -167t135 -417q0 -18 -4 -67h-795zM342 616h555q-12 125 -84 205t-190 80q-113 0 -189 -79t-92 -206zM618 1356 l-157 -137h-193l238 299h229l238 -299h-197z" />
<glyph unicode="&#xeb;" horiz-adv-x="1236" d="M344 453q20 -129 104 -202t207 -73q160 0 293 129l146 -129q-168 -203 -443 -203q-238 0 -396.5 158t-158.5 406q0 238 149.5 401.5t379.5 163.5q248 0 383 -167t135 -417q0 -18 -4 -67h-795zM342 616h555q-12 125 -84 205t-190 80q-113 0 -189 -79t-92 -206zM950 1219 h-252v241h252v-241zM543 1219h-252v241h252v-241z" />
<glyph unicode="&#xec;" horiz-adv-x="585" d="M418 0h-248v1081h248v-1081zM207 1219l-250 235l225 100l217 -335h-192z" />
<glyph unicode="&#xed;" horiz-adv-x="585" d="M418 0h-248v1081h248v-1081zM379 1219h-193l217 335l226 -100z" />
<glyph unicode="&#xee;" horiz-adv-x="585" d="M418 0h-248v1081h248v-1081zM291 1356l-158 -137h-192l237 299h230l237 -299h-196z" />
<glyph unicode="&#xef;" horiz-adv-x="585" d="M418 0h-248v1081h248v-1081zM623 1219h-252v241h252v-241zM215 1219h-252v241h252v-241z" />
<glyph unicode="&#xf0;" horiz-adv-x="1314" d="M641 1204l-244 -108l-98 129l248 108l-119 162h285l49 -72l203 88l96 -129l-209 -90l182 -264q94 -135 137 -249.5t43 -250.5q0 -231 -154.5 -392t-412.5 -161q-236 0 -393.5 156t-157.5 379q0 215 136.5 350t338.5 135q145 0 285 -84zM971 504q0 131 -90 220t-232 89 q-139 0 -224 -87t-85 -222q0 -131 90 -224.5t227 -93.5q139 0 226.5 92.5t87.5 225.5z" />
<glyph unicode="&#xf1;" horiz-adv-x="1269" d="M403 610v-610h-247v1081h247v-168q129 190 338 191q180 0 282.5 -112.5t102.5 -303.5v-688h-247v614q0 127 -60.5 196t-171.5 69q-109 0 -176.5 -72t-67.5 -197zM1030 1473q-35 -131 -87 -192.5t-142 -61.5q-61 0 -161.5 40.5t-133.5 40.5q-43 0 -65.5 -22.5t-47.5 -79.5 l-137 41q35 131 87 193.5t142 62.5q61 0 162 -41t133 -41q43 0 65.5 22.5t47.5 80.5z" />
<glyph unicode="&#xf2;" horiz-adv-x="1345" d="M1249 540.5q0 -235.5 -165.5 -400.5t-413.5 -165q-246 0 -410 164t-164 398q0 236 166 401.5t412 165.5t410.5 -164t164.5 -399.5zM1001 536.5q0 147.5 -94 249t-237 101.5q-145 0 -235.5 -99.5t-90.5 -247t93 -249t237 -101.5q147 0 237 99.5t90 247zM575 1219l-249 235 l225 100l217 -335h-193z" />
<glyph unicode="&#xf3;" horiz-adv-x="1345" d="M1249 540.5q0 -235.5 -165.5 -400.5t-413.5 -165q-246 0 -410 164t-164 398q0 236 166 401.5t412 165.5t410.5 -164t164.5 -399.5zM1001 536.5q0 147.5 -94 249t-237 101.5q-145 0 -235.5 -99.5t-90.5 -247t93 -249t237 -101.5q147 0 237 99.5t90 247zM768 1219h-193 l218 335l225 -100z" />
<glyph unicode="&#xf4;" horiz-adv-x="1345" d="M1249 540.5q0 -235.5 -165.5 -400.5t-413.5 -165q-246 0 -410 164t-164 398q0 236 166 401.5t412 165.5t410.5 -164t164.5 -399.5zM1001 536.5q0 147.5 -94 249t-237 101.5q-145 0 -235.5 -99.5t-90.5 -247t93 -249t237 -101.5q147 0 237 99.5t90 247zM670 1356 l-158 -137h-193l238 299h229l238 -299h-197z" />
<glyph unicode="&#xf5;" horiz-adv-x="1345" d="M1249 540.5q0 -235.5 -165.5 -400.5t-413.5 -165q-246 0 -410 164t-164 398q0 236 166 401.5t412 165.5t410.5 -164t164.5 -399.5zM1001 536.5q0 147.5 -94 249t-237 101.5q-145 0 -235.5 -99.5t-90.5 -247t93 -249t237 -101.5q147 0 237 99.5t90 247zM1059 1473 q-35 -131 -87 -192.5t-143 -61.5q-61 0 -161.5 40.5t-132.5 40.5q-43 0 -66 -22.5t-47 -79.5l-137 41q35 131 87 193.5t142 62.5q61 0 161.5 -41t133.5 -41q43 0 65.5 22.5t47.5 80.5z" />
<glyph unicode="&#xf6;" horiz-adv-x="1345" d="M1249 540.5q0 -235.5 -165.5 -400.5t-413.5 -165q-246 0 -410 164t-164 398q0 236 166 401.5t412 165.5t410.5 -164t164.5 -399.5zM1001 536.5q0 147.5 -94 249t-237 101.5q-145 0 -235.5 -99.5t-90.5 -247t93 -249t237 -101.5q147 0 237 99.5t90 247zM1001 1219h-251 v241h251v-241zM594 1219h-252v241h252v-241z" />
<glyph unicode="&#xf8;" horiz-adv-x="1345" d="M1249 541q0 -236 -165.5 -401t-413.5 -165q-170 0 -310 88l-69 -73h-225l163 182q-133 156 -133 365q0 236 166 401.5t412 165.5q172 0 309 -88l72 78h225l-166 -187q135 -153 135 -366zM838 844q-72 49 -168 49q-147 0 -239.5 -101.5t-92.5 -250.5q0 -104 51 -189z M1008 537q0 106 -52 190l-446 -494q76 -49 164 -49q147 0 240.5 101.5t93.5 251.5z" />
<glyph unicode="&#xf9;" horiz-adv-x="1269" d="M866 471v610h248v-1081h-248v168q-129 -190 -338 -191q-180 0 -282.5 113t-102.5 303v688h248v-614q0 -127 60.5 -195.5t171.5 -68.5q109 0 176 71.5t67 196.5zM563 1214l-250 236l226 100l217 -336h-193z" />
<glyph unicode="&#xfa;" horiz-adv-x="1269" d="M866 471v610h248v-1081h-248v168q-129 -190 -338 -191q-180 0 -282.5 113t-102.5 303v688h248v-614q0 -127 60.5 -195.5t171.5 -68.5q109 0 176 71.5t67 196.5zM702 1214h-192l217 336l225 -100z" />
<glyph unicode="&#xfb;" horiz-adv-x="1269" d="M866 471v610h248v-1081h-248v168q-129 -190 -338 -191q-180 0 -282.5 113t-102.5 303v688h248v-614q0 -127 60.5 -195.5t171.5 -68.5q109 0 176 71.5t67 196.5zM633 1356l-158 -137h-192l237 299h230l237 -299h-196z" />
<glyph unicode="&#xfc;" horiz-adv-x="1269" d="M866 471v610h248v-1081h-248v168q-129 -190 -338 -191q-180 0 -282.5 113t-102.5 303v688h248v-614q0 -127 60.5 -195.5t171.5 -68.5q109 0 176 71.5t67 196.5zM965 1219h-252v241h252v-241zM557 1219h-252v241h252v-241z" />
<glyph unicode="&#xfd;" horiz-adv-x="1220" d="M1163 1081l-430 -1112q-66 -166 -145.5 -234.5t-210.5 -68.5q-135 0 -256 66l84 184q76 -41 145 -41q53 0 88 27.5t66 97.5l-451 1081h264l308 -802l280 802h258zM692 1214h-192l217 336l225 -100z" />
<glyph unicode="&#xfe;" d="M1274 541q0 -258 -149.5 -411t-354.5 -153q-223 0 -367 191v-496h-247v1823h247v-594q143 203 367 203q205 0 354.5 -152.5t149.5 -410.5zM1022 541q0 156 -90 252t-219 96q-131 0 -223.5 -97.5t-92.5 -251t92.5 -250.5t223.5 -97t220 95t89 253z" />
<glyph unicode="&#xff;" horiz-adv-x="1220" d="M1163 1081l-430 -1112q-66 -166 -145.5 -234.5t-210.5 -68.5q-135 0 -256 66l84 184q76 -41 145 -41q53 0 88 27.5t66 97.5l-451 1081h264l308 -802l280 802h258zM940 1219h-252v241h252v-241zM532 1219h-251v241h251v-241z" />
<glyph unicode="&#x152;" horiz-adv-x="2248" d="M2134 0h-1251q-334 0 -548 204t-214 511t214 513t548 206h1241v-226h-766v-372h674v-226h-674v-385h776v-225zM1106 229v975h-223q-223 0 -360.5 -136t-137.5 -349q0 -215 137 -352.5t361 -137.5h223z" />
<glyph unicode="&#x153;" horiz-adv-x="2129" d="M1104 209q-72 -106 -189.5 -170t-257.5 -64q-233 0 -397 165t-164 397q0 236 166 401.5t406 165.5q137 0 252.5 -62.5t187.5 -169.5q66 106 174.5 169t239.5 63q242 0 377 -168t135 -416q0 -18 -4 -67h-795q20 -129 105 -202t206 -73q162 0 295 129l146 -129 q-172 -203 -443 -203q-141 0 -256.5 61.5t-183.5 172.5zM1233 616h557q-14 127 -85 206t-189 79q-113 0 -190 -79t-93 -206zM987 537q0 145 -92 247.5t-231 102.5q-143 0 -231.5 -99.5t-88.5 -246.5q0 -145 92 -248t232 -103q143 0 231 100t88 247z" />
<glyph unicode="&#x178;" horiz-adv-x="1466" d="M860 571v-571h-254v565l-569 869h297l401 -635l406 635h289zM1063 1550h-252v242h252v-242zM655 1550h-252v242h252v-242z" />
<glyph unicode="&#x2c6;" horiz-adv-x="1024" d="M510 1356l-158 -137h-192l237 299h230l237 -299h-196z" />
<glyph unicode="&#x2dc;" horiz-adv-x="1024" d="M899 1473q-35 -131 -87 -192.5t-142 -61.5q-61 0 -161.5 40.5t-133.5 40.5q-43 0 -65.5 -22.5t-47.5 -79.5l-137 41q35 131 87 193.5t142 62.5q61 0 161.5 -41t133.5 -41q43 0 65.5 22.5t47.5 80.5z" />
<glyph unicode="&#x2000;" horiz-adv-x="944" />
<glyph unicode="&#x2001;" horiz-adv-x="1888" />
<glyph unicode="&#x2002;" horiz-adv-x="944" />
<glyph unicode="&#x2003;" horiz-adv-x="1888" />
<glyph unicode="&#x2004;" horiz-adv-x="628" />
<glyph unicode="&#x2005;" horiz-adv-x="471" />
<glyph unicode="&#x2006;" horiz-adv-x="313" />
<glyph unicode="&#x2007;" horiz-adv-x="313" />
<glyph unicode="&#x2008;" horiz-adv-x="235" />
<glyph unicode="&#x2009;" horiz-adv-x="376" />
<glyph unicode="&#x200a;" horiz-adv-x="104" />
<glyph unicode="&#x2010;" horiz-adv-x="835" d="M721 506h-606v244h606v-244z" />
<glyph unicode="&#x2011;" horiz-adv-x="835" d="M721 506h-606v244h606v-244z" />
<glyph unicode="&#x2012;" horiz-adv-x="835" d="M721 506h-606v244h606v-244z" />
<glyph unicode="&#x2013;" horiz-adv-x="1081" d="M967 510h-852v235h852v-235z" />
<glyph unicode="&#x2014;" horiz-adv-x="1839" d="M1724 510h-1609v235h1609v-235z" />
<glyph unicode="&#x2018;" horiz-adv-x="550" d="M471 1337q-188 -35 -174 -190h104v-283h-272v240q0 166 78 247t237 93z" />
<glyph unicode="&#x2019;" horiz-adv-x="550" d="M80 961q188 35 174 192h-104v281h272v-240q0 -166 -78 -247t-238 -93z" />
<glyph unicode="&#x201a;" horiz-adv-x="550" d="M70 -193q188 37 174 193h-105v281h273v-238q0 -166 -78 -247t-238 -93z" />
<glyph unicode="&#x201c;" horiz-adv-x="1026" d="M946 1337q-188 -35 -176 -190h107v-283h-273v240q0 166 78 247t238 93zM471 1337q-188 -35 -174 -190h104v-283h-272v240q0 166 78 247t237 93z" />
<glyph unicode="&#x201d;" horiz-adv-x="1026" d="M555 961q188 35 174 192h-104v281h272v-240q0 -166 -78 -247t-237 -93zM80 961q188 35 174 192h-104v281h272v-240q0 -166 -78 -247t-238 -93z" />
<glyph unicode="&#x201e;" horiz-adv-x="1026" d="M545 -193q188 37 174 193h-105v281h273v-238q0 -166 -78 -247t-238 -93zM70 -193q188 37 174 193h-105v281h273v-238q0 -166 -78 -247t-238 -93z" />
<glyph unicode="&#x2022;" horiz-adv-x="1005" d="M793 721q0 -119 -85 -204t-206 -85q-119 0 -204 85t-85 204t85 204t204 85q121 0 206 -85t85 -204z" />
<glyph unicode="&#x2026;" horiz-adv-x="1622" d="M1483 0h-266v274h266v-274zM944 0h-266v274h266v-274zM406 0h-267v274h267v-274z" />
<glyph unicode="&#x202f;" horiz-adv-x="376" />
<glyph unicode="&#x2039;" horiz-adv-x="724" d="M430 999l188 -96l-270 -360l270 -363l-188 -96l-340 448v17z" />
<glyph unicode="&#x203a;" horiz-adv-x="724" d="M297 84l-188 94l270 361l-270 362l188 98l338 -450v-17z" />
<glyph unicode="&#x2044;" horiz-adv-x="940" d="M813 1552h225l-956 -1753h-225z" />
<glyph unicode="&#x205f;" horiz-adv-x="471" />
<glyph unicode="&#x2122;" horiz-adv-x="1413" d="M1217 1251l-195 -303h-12l-195 303v-448h-117v631h129l191 -299l190 299h125v-631h-116v448zM369 1323v-520h-121v520h-195v111h510v-111h-194z" />
<glyph unicode="&#xe000;" horiz-adv-x="1080" d="M0 1080h1080v-1080h-1080v1080z" />
<glyph unicode="&#xfb01;" horiz-adv-x="1355" d="M1196 1247h-266v236h266v-236zM455 1073h286v-205h-282v-868h-248v868h-137v207h137v78q0 354 332 354q104 0 200 -28v-209q-80 27 -145 26q-143 0 -143 -163v-60zM1188 0h-248v1081h248v-1081z" />
<glyph unicode="&#xfb02;" horiz-adv-x="1355" d="M455 1073h286v-205h-282v-868h-248v868h-137v207h137v78q0 354 332 354q104 0 200 -28v-209q-80 27 -145 26q-143 0 -143 -163v-60zM1188 0h-248v1495h248v-1495z" />
<glyph unicode="&#xfb03;" horiz-adv-x="2125" d="M1966 1247h-266v236h266v-236zM1958 0h-248v1081h248v-1081zM1225 1073h286v-205h-282v-868h-248v868h-137v207h137v78q0 354 332 354q104 0 200 -28v-209q-80 27 -145 26q-143 0 -143 -163v-60zM455 1073h286v-205h-282v-868h-248v868h-137v207h137v78q0 354 332 354 q104 0 200 -28v-209q-80 27 -145 26q-143 0 -143 -163v-60z" />
<glyph unicode="&#xfb04;" horiz-adv-x="2125" d="M1958 0h-248v1495h248v-1495zM1225 1073h286v-205h-282v-868h-248v868h-137v207h137v78q0 354 332 354q104 0 200 -28v-209q-80 27 -145 26q-143 0 -143 -163v-60zM455 1073h286v-205h-282v-868h-248v868h-137v207h137v78q0 354 332 354q104 0 200 -28v-209 q-80 27 -145 26q-143 0 -143 -163v-60z" />
</font>
</defs>
</svg>
